<svg xmlns="http://www.w3.org/2000/svg" height="50" width="50" version="1.1" viewBox="0 0 512 512.00026">
<g id="surface1">
<path d="M 129.832031 415.789062 L 108.820312 467.121094 L 76.699219 498.941406 C 59.289062 516.351562 30.769531 516.351562 13.058594 498.941406 C -4.351562 481.230469 -4.351562 452.714844 13.058594 435.300781 L 44.878906 403.179688 L 96.210938 382.167969 L 113.019531 398.980469 Z M 129.832031 415.789062 " style=" stroke:none;fill-rule:nonzero;fill:rgb(77.647059%,44.313725%,35.294118%);fill-opacity:1;" />
<path d="M 113.019531 398.976562 L 129.832031 415.789062 L 108.820312 467.121094 L 76.699219 498.941406 C 59.289062 516.351562 30.769531 516.351562 13.058594 498.941406 Z M 113.019531 398.976562 " style=" stroke:none;fill-rule:nonzero;fill:rgb(60%,31.372549%,23.921569%);fill-opacity:1;" />
<path d="M 224.492188 351.148438 L 108.820312 467.121094 L 44.878906 403.179688 L 160.851562 287.507812 C 166.855469 281.503906 176.164062 281.503906 182.167969 287.507812 L 224.492188 329.832031 C 230.496094 335.835938 230.496094 345.144531 224.492188 351.148438 Z M 224.492188 351.148438 " style=" stroke:none;fill-rule:nonzero;fill:rgb(70.196078%,37.254902%,28.627451%);fill-opacity:1;" />
<path d="M 224.492188 329.832031 C 230.496094 335.835938 230.496094 345.144531 224.492188 351.148438 L 108.820312 467.121094 L 77 435.300781 L 203.480469 308.820312 Z M 224.492188 329.832031 " style=" stroke:none;fill-rule:nonzero;fill:rgb(50.196078%,25.882353%,19.215686%);fill-opacity:1;" />
<path d="M 455.039062 56.960938 C 378.789062 -18.988281 255.113281 -18.988281 178.863281 56.960938 C 102.914062 133.210938 102.914062 256.886719 178.863281 333.136719 C 255.109375 409.085938 378.789062 409.085938 455.039062 333.136719 C 530.988281 256.886719 530.988281 133.210938 455.039062 56.960938 Z M 455.039062 56.960938 " style=" stroke:none;fill-rule:nonzero;fill:rgb(40.784314%,32.941176%,30.980392%);fill-opacity:1;" />
<path d="M 455.039062 333.136719 C 378.789062 409.085938 255.113281 409.085938 178.863281 333.136719 L 455.039062 56.960938 C 530.988281 133.210938 530.988281 256.886719 455.039062 333.136719 Z M 455.039062 333.136719 " style=" stroke:none;fill-rule:nonzero;fill:rgb(32.54902%,26.27451%,24.705882%);fill-opacity:1;" />
<path d="M 412.410156 99.589844 C 359.878906 46.753906 274.023438 46.753906 221.492188 99.589844 C 168.65625 152.121094 168.65625 237.976562 221.492188 290.511719 C 274.023438 343.34375 359.878906 343.34375 412.410156 290.511719 C 465.246094 237.976562 465.246094 152.121094 412.410156 99.589844 Z M 412.410156 99.589844 " style=" stroke:none;fill-rule:nonzero;fill:rgb(74.117647%,99.215686%,100%);fill-opacity:1;" />
<path d="M 412.410156 290.507812 C 359.878906 343.34375 274.023438 343.34375 221.492188 290.507812 L 412.410156 99.589844 C 465.246094 152.121094 465.246094 237.976562 412.410156 290.507812 Z M 412.410156 290.507812 " style=" stroke:none;fill-rule:nonzero;fill:rgb(60.784314%,98.431373%,100%);fill-opacity:1;" />
</g>
</svg>